<svg width="1973" height="500" viewBox="0 0 1973 500" fill="none" xmlns="http://www.w3.org/2000/svg">
<rect width="1973" height="500" fill="#062AAA"/>
<g style="mix-blend-mode:soft-light" clip-path="url(#clip0_236_5)">
<path d="M0 280.279L65.7667 302.207C131.533 324.135 263.067 367.99 394.6 382.655C526.133 396.771 657.667 383.066 789.2 360.727C920.733 339.21 1052.27 309.059 1183.8 294.943C1315.33 280.279 1446.87 280.279 1578.4 302.207C1709.93 324.135 1841.47 367.99 1907.23 389.918L1973 411.846V499.558H1907.23C1841.47 499.558 1709.93 499.558 1578.4 499.558C1446.87 499.558 1315.33 499.558 1183.8 499.558C1052.27 499.558 920.733 499.558 789.2 499.558C657.667 499.558 526.133 499.558 394.6 499.558C263.067 499.558 131.533 499.558 65.7667 499.558H0V280.279Z" fill="white"/>
</g>
<path d="M1895.2 392C1878.74 392 1865.39 405.339 1865.39 421.794C1865.39 424.448 1865.74 427.022 1866.39 429.471H1872.29C1872.93 429.471 1873.53 429.757 1873.92 430.248C1874.32 430.739 1874.48 431.383 1874.34 432.001L1872.86 439.007L1875.27 437.125C1875.64 436.838 1876.09 436.681 1876.56 436.681H1880.49C1881.24 436.681 1881.92 437.082 1882.3 437.713C1884.08 436.756 1886.25 436.354 1888.67 436.354C1891.19 436.354 1893.48 436.781 1895.1 438.044C1895.69 438.494 1896.15 439.022 1896.52 439.609L1896.78 438.343C1896.91 437.74 1897.29 437.245 1897.8 436.956C1897.6 436.424 1897.51 435.856 1897.51 435.29C1897.51 434.569 1897.66 433.845 1898.01 433.171C1898.33 432.553 1898.77 432.008 1899.34 431.582C1899.86 431.193 1900.44 430.908 1901.06 430.722C1901.07 430.72 1901.08 430.718 1901.08 430.716L1901.09 430.714C1901.7 430.541 1902.32 430.455 1902.95 430.455C1904.07 430.455 1905.17 430.734 1906.12 431.402C1907.34 432.258 1907.81 433.561 1907.81 434.873C1907.81 435.626 1907.65 436.387 1907.25 437.085C1907.12 437.334 1906.96 437.566 1906.79 437.782C1907.02 438.217 1907.1 438.727 1906.99 439.219L1904.32 451.588H1925V421.794C1925 405.339 1911.66 392 1895.2 392Z" fill="#FA7F80"/>
<path d="M1902.17 451.588L1904.94 438.776H1898.83L1896.12 451.588H1902.17Z" fill="white"/>
<path d="M1877.24 444.143L1877.79 443.692C1877.71 444.054 1877.65 444.422 1877.61 444.796L1877.24 444.143Z" fill="#FA7F80"/>
<path d="M1904.94 436.7C1904.86 436.781 1904.77 436.857 1904.68 436.929C1904.38 437.168 1904.03 437.346 1903.63 437.465C1903.23 437.585 1902.83 437.644 1902.41 437.644C1901.62 437.644 1900.95 437.456 1900.41 437.078C1900.25 436.965 1900.12 436.833 1900 436.681C1899.74 436.325 1899.61 435.862 1899.61 435.29C1899.61 434.854 1899.7 434.466 1899.88 434.129C1900.06 433.771 1900.29 433.483 1900.59 433.265C1900.91 433.026 1901.27 432.847 1901.67 432.728C1902.08 432.609 1902.51 432.549 1902.95 432.549C1903.72 432.549 1904.38 432.738 1904.91 433.116C1905.45 433.493 1905.72 434.079 1905.72 434.873C1905.72 435.33 1905.62 435.727 1905.42 436.065C1905.3 436.293 1905.15 436.499 1904.96 436.682C1904.96 436.688 1904.95 436.694 1904.94 436.7Z" fill="white"/>
<path d="M1902.17 451.588H1896.12L1898.83 438.776H1904.94L1902.17 451.588ZM1905.72 434.873C1905.72 435.33 1905.62 435.727 1905.42 436.065C1905.24 436.403 1904.99 436.691 1904.68 436.929C1904.38 437.168 1904.03 437.346 1903.63 437.465C1903.23 437.585 1902.83 437.644 1902.41 437.644C1901.62 437.644 1900.95 437.456 1900.41 437.078C1899.88 436.701 1899.61 436.105 1899.61 435.29C1899.61 434.854 1899.7 434.466 1899.88 434.129C1900.06 433.771 1900.29 433.483 1900.59 433.265C1900.91 433.026 1901.27 432.847 1901.67 432.728C1902.08 432.609 1902.51 432.549 1902.95 432.549C1903.72 432.549 1904.38 432.738 1904.91 433.116C1905.45 433.493 1905.72 434.079 1905.72 434.873Z" fill="white"/>
<path d="M1888.67 438.449C1891.03 438.449 1892.75 438.866 1893.82 439.7C1894.95 440.574 1895.52 442.024 1895.52 444.05C1895.52 445.301 1895.31 446.433 1894.89 447.446C1894.48 448.44 1893.89 449.264 1893.14 449.919C1891.63 451.19 1889.44 451.826 1886.58 451.826C1884.14 451.826 1882.39 451.359 1881.33 450.426C1880.2 449.453 1879.64 447.993 1879.64 446.046C1879.64 444.755 1879.89 443.583 1880.41 442.53C1880.95 441.478 1881.71 440.604 1882.7 439.909C1884.16 438.935 1886.14 438.449 1888.67 438.449ZM1886.64 449.8C1887.14 449.8 1887.56 449.522 1887.92 448.966C1888.3 448.41 1888.6 447.734 1888.81 446.94C1889.03 446.126 1889.19 445.291 1889.29 444.437C1889.41 443.563 1889.47 442.808 1889.47 442.173C1889.47 441.617 1889.41 441.2 1889.29 440.922C1889.19 440.624 1888.96 440.475 1888.61 440.475C1888.07 440.475 1887.6 440.763 1887.2 441.339C1886.83 441.915 1886.52 442.6 1886.28 443.394C1886.04 444.189 1885.86 445.003 1885.74 445.838C1885.65 446.672 1885.6 447.347 1885.6 447.864C1885.6 449.155 1885.94 449.8 1886.64 449.8Z" fill="white"/>
<path d="M1869.61 444.199L1876.56 438.776H1880.49L1874.56 443.633L1879 451.588H1872.32L1869.28 445.599L1868.03 451.588H1861.95L1866.19 431.566L1872.29 431.566L1869.61 444.199Z" fill="white"/>
<path d="M1852.45 445.599C1852.37 446.036 1852.31 446.453 1852.27 446.851C1852.25 447.248 1852.24 447.605 1852.24 447.923C1852.24 448.102 1852.25 448.3 1852.27 448.519C1852.29 448.737 1852.33 448.946 1852.39 449.145C1852.47 449.323 1852.57 449.482 1852.69 449.621C1852.83 449.741 1853.02 449.8 1853.25 449.8C1853.43 449.8 1853.63 449.741 1853.85 449.621C1854.09 449.502 1854.32 449.333 1854.54 449.115C1854.77 448.896 1854.99 448.628 1855.19 448.31C1855.41 447.993 1855.58 447.635 1855.7 447.238H1860.59L1859.81 450.426C1859.41 450.684 1858.96 450.902 1858.44 451.081C1857.92 451.26 1857.38 451.409 1856.8 451.528C1856.23 451.627 1855.64 451.697 1855.04 451.737C1854.45 451.796 1853.88 451.826 1853.34 451.826C1852.35 451.826 1851.43 451.737 1850.57 451.558C1849.72 451.379 1848.97 451.071 1848.34 450.634C1847.7 450.197 1847.19 449.621 1846.82 448.906C1846.46 448.171 1846.28 447.268 1846.28 446.195C1846.28 445.222 1846.43 444.268 1846.73 443.335C1847.05 442.401 1847.56 441.577 1848.28 440.862C1849.01 440.127 1849.99 439.541 1851.2 439.104C1852.43 438.667 1853.96 438.449 1855.79 438.449C1857.77 438.449 1859.27 438.757 1860.26 439.372C1861.27 439.988 1861.78 440.951 1861.78 442.262C1861.78 442.799 1861.7 443.384 1861.54 444.02C1861.38 444.636 1861.14 445.162 1860.82 445.599H1852.45ZM1856.41 442.054C1856.41 441.438 1856.31 441.021 1856.12 440.802C1855.92 440.584 1855.68 440.475 1855.4 440.475C1855.08 440.475 1854.78 440.584 1854.51 440.802C1854.25 441.001 1854.01 441.279 1853.79 441.637C1853.57 441.974 1853.37 442.372 1853.2 442.828C1853.02 443.265 1852.87 443.732 1852.75 444.229H1856.15C1856.19 443.99 1856.23 443.742 1856.26 443.484C1856.3 443.265 1856.33 443.027 1856.35 442.769C1856.39 442.511 1856.41 442.272 1856.41 442.054Z" fill="white"/>
<path d="M1833.96 438.776H1838.82L1839.27 441.011H1839.47C1839.93 440.296 1840.52 439.69 1841.23 439.193C1841.95 438.697 1842.89 438.449 1844.06 438.449C1844.14 438.449 1844.26 438.459 1844.42 438.478C1844.6 438.478 1844.79 438.508 1844.99 438.568C1845.21 438.608 1845.42 438.677 1845.64 438.776C1845.88 438.856 1846.11 438.975 1846.33 439.134L1845.02 445.271H1841.77C1841.73 444.04 1841.62 443.186 1841.44 442.709C1841.26 442.213 1840.97 441.964 1840.58 441.964C1840.38 441.964 1840.16 442.014 1839.92 442.113C1839.7 442.193 1839.47 442.381 1839.24 442.679L1837.33 451.588H1831.25L1833.96 438.776Z" fill="white"/>
<path d="M1823.79 438.449C1826.16 438.449 1827.88 438.866 1828.95 439.7C1830.08 440.574 1830.65 442.024 1830.65 444.05C1830.65 445.301 1830.44 446.433 1830.02 447.446C1829.6 448.44 1829.02 449.264 1828.26 449.919C1826.75 451.19 1824.57 451.826 1821.71 451.826C1819.26 451.826 1817.51 451.359 1816.46 450.426C1815.33 449.453 1814.76 447.993 1814.76 446.046C1814.76 444.755 1815.02 443.583 1815.54 442.53C1816.07 441.478 1816.84 440.604 1817.83 439.909C1819.28 438.935 1821.27 438.449 1823.79 438.449ZM1821.77 449.8C1822.26 449.8 1822.69 449.522 1823.05 448.966C1823.42 448.41 1823.72 447.734 1823.94 446.94C1824.16 446.126 1824.32 445.291 1824.42 444.437C1824.54 443.563 1824.6 442.808 1824.6 442.173C1824.6 441.617 1824.54 441.2 1824.42 440.922C1824.32 440.624 1824.09 440.475 1823.73 440.475C1823.2 440.475 1822.73 440.763 1822.33 441.339C1821.95 441.915 1821.65 442.6 1821.41 443.394C1821.17 444.189 1820.99 445.003 1820.87 445.838C1820.77 446.672 1820.72 447.347 1820.72 447.864C1820.72 449.155 1821.07 449.8 1821.77 449.8Z" fill="white"/>
<path d="M1805.73 440.892L1813.09 432.639H1816.46L1809.79 439.879L1814.32 451.588H1807.82L1805.2 443.275L1803.44 451.588H1797L1801.02 432.669H1807.49L1805.73 440.892Z" fill="white"/>
<g filter="url(#filter0_d_236_5)">
<path d="M800.961 210V162.32H816.577C819.564 162.32 822.188 162.917 824.449 164.112C826.71 165.307 828.481 166.992 829.761 169.168C831.041 171.301 831.681 173.776 831.681 176.592C831.681 180.048 830.721 182.992 828.801 185.424C826.881 187.856 824.3 189.477 821.057 190.288L832.449 210H828.673L816.577 188.816L820.033 190.8H804.161V210H800.961ZM804.161 187.92H816.577C818.924 187.92 820.972 187.451 822.721 186.512C824.513 185.531 825.921 184.187 826.945 182.48C827.969 180.731 828.481 178.747 828.481 176.528C828.481 174.267 827.969 172.304 826.945 170.64C825.964 168.933 824.577 167.611 822.785 166.672C820.993 165.691 818.924 165.2 816.577 165.2H804.161V187.92ZM854.497 210.768C851.297 210.768 848.417 210 845.857 208.464C843.297 206.885 841.27 204.773 839.777 202.128C838.283 199.44 837.536 196.453 837.536 193.168C837.536 189.84 838.262 186.853 839.713 184.208C841.163 181.52 843.105 179.408 845.537 177.872C848.011 176.336 850.785 175.568 853.857 175.568C856.033 175.568 858.059 175.973 859.937 176.784C861.814 177.595 863.435 178.725 864.801 180.176C866.209 181.627 867.297 183.333 868.065 185.296C868.833 187.216 869.217 189.307 869.217 191.568C869.217 191.995 869.195 192.4 869.153 192.784C869.153 193.168 869.11 193.595 869.025 194.064H839.009V191.504H867.361L866.273 192.336C866.401 189.691 865.931 187.323 864.865 185.232C863.798 183.099 862.305 181.413 860.385 180.176C858.465 178.896 856.289 178.256 853.857 178.256C851.339 178.256 849.057 178.917 847.009 180.24C845.003 181.563 843.403 183.355 842.209 185.616C841.014 187.835 840.417 190.352 840.417 193.168C840.417 195.984 841.035 198.523 842.273 200.784C843.51 203.045 845.174 204.837 847.265 206.16C849.398 207.44 851.809 208.08 854.497 208.08C856.929 208.08 859.126 207.504 861.089 206.352C863.051 205.2 864.63 203.579 865.825 201.488L868.257 202.768C867.446 204.389 866.337 205.819 864.929 207.056C863.521 208.251 861.921 209.168 860.129 209.808C858.379 210.448 856.502 210.768 854.497 210.768ZM887.981 210.768C885.933 210.768 884.077 210.384 882.413 209.616C880.791 208.805 879.49 207.696 878.509 206.288C877.527 204.837 877.036 203.173 877.036 201.296C877.036 199.76 877.378 198.288 878.061 196.88C878.786 195.429 879.938 194.171 881.517 193.104C883.138 192.037 885.293 191.291 887.981 190.864L902.061 188.496V191.248L888.941 193.424C885.613 193.979 883.287 194.96 881.965 196.368C880.642 197.776 879.981 199.376 879.981 201.168C879.981 203.301 880.77 204.987 882.349 206.224C883.927 207.461 885.89 208.08 888.237 208.08C890.839 208.08 893.079 207.461 894.957 206.224C896.877 204.987 898.37 203.365 899.437 201.36C900.503 199.312 901.037 197.115 901.037 194.768V186.64C901.037 184.123 900.162 182.117 898.413 180.624C896.706 179.088 894.423 178.32 891.565 178.32C889.389 178.32 887.383 178.853 885.549 179.92C883.714 180.987 882.285 182.395 881.26 184.144L878.701 182.8C879.341 181.52 880.279 180.347 881.517 179.28C882.797 178.171 884.29 177.275 885.997 176.592C887.703 175.909 889.559 175.568 891.565 175.568C893.997 175.568 896.13 176.037 897.965 176.976C899.842 177.915 901.293 179.216 902.317 180.88C903.383 182.544 903.917 184.464 903.917 186.64V210H901.037V202.64H901.293C900.738 204.048 899.821 205.371 898.541 206.608C897.261 207.845 895.725 208.848 893.933 209.616C892.141 210.384 890.157 210.768 887.981 210.768ZM930.555 210.768C927.44 210.768 924.603 210 922.043 208.464C919.525 206.928 917.52 204.837 916.027 202.192C914.533 199.504 913.786 196.496 913.786 193.168C913.786 189.797 914.533 186.789 916.027 184.144C917.52 181.499 919.525 179.408 922.043 177.872C924.603 176.336 927.44 175.568 930.555 175.568C932.645 175.568 934.565 175.909 936.315 176.592C938.107 177.275 939.664 178.213 940.987 179.408C942.352 180.603 943.419 181.968 944.187 183.504L941.755 184.848C940.56 182.715 939.003 181.093 937.083 179.984C935.163 178.832 932.987 178.256 930.555 178.256C927.952 178.256 925.605 178.875 923.515 180.112C921.424 181.349 919.76 183.099 918.523 185.36C917.285 187.579 916.667 190.181 916.667 193.168C916.667 196.155 917.285 198.779 918.523 201.04C919.76 203.259 921.424 204.987 923.515 206.224C925.605 207.461 927.952 208.08 930.555 208.08C932.987 208.08 935.163 207.504 937.083 206.352C939.003 205.2 940.56 203.579 941.755 201.488L944.187 202.768C943.419 204.261 942.352 205.627 940.987 206.864C939.664 208.059 938.107 209.019 936.315 209.744C934.565 210.427 932.645 210.768 930.555 210.768ZM965.718 210.384C963.115 210.384 961.11 209.68 959.702 208.272C958.294 206.864 957.59 204.752 957.59 201.936V178.896H951.19V176.336H954.39C955.499 176.336 956.31 176.059 956.822 175.504C957.334 174.949 957.59 174.075 957.59 172.88V168.4H960.47V176.336H967.766V178.896H960.47V201.936C960.47 202.704 960.576 203.536 960.79 204.432C961.046 205.328 961.558 206.096 962.326 206.736C963.136 207.333 964.352 207.632 965.974 207.632C966.315 207.632 966.742 207.611 967.253 207.568C967.766 207.525 968.171 207.483 968.47 207.44V210C968.043 210.128 967.531 210.213 966.934 210.256C966.379 210.341 965.974 210.384 965.718 210.384ZM989.274 210V162.32H991.834L1021.66 205.008H1020.63V162.32H1023.83V210H1021.27L991.258 167.056H992.474V210H989.274ZM1045.36 210.768C1043.31 210.768 1041.45 210.384 1039.79 209.616C1038.17 208.805 1036.86 207.696 1035.88 206.288C1034.9 204.837 1034.41 203.173 1034.41 201.296C1034.41 199.76 1034.75 198.288 1035.44 196.88C1036.16 195.429 1037.31 194.171 1038.89 193.104C1040.51 192.037 1042.67 191.291 1045.36 190.864L1059.44 188.496V191.248L1046.32 193.424C1042.99 193.979 1040.66 194.96 1039.34 196.368C1038.02 197.776 1037.36 199.376 1037.36 201.168C1037.36 203.301 1038.14 204.987 1039.72 206.224C1041.3 207.461 1043.26 208.08 1045.61 208.08C1048.21 208.08 1050.45 207.461 1052.33 206.224C1054.25 204.987 1055.74 203.365 1056.81 201.36C1057.88 199.312 1058.41 197.115 1058.41 194.768V186.64C1058.41 184.123 1057.54 182.117 1055.79 180.624C1054.08 179.088 1051.8 178.32 1048.94 178.32C1046.76 178.32 1044.76 178.853 1042.92 179.92C1041.09 180.987 1039.66 182.395 1038.64 184.144L1036.08 182.8C1036.72 181.52 1037.65 180.347 1038.89 179.28C1040.17 178.171 1041.66 177.275 1043.37 176.592C1045.08 175.909 1046.93 175.568 1048.94 175.568C1051.37 175.568 1053.5 176.037 1055.34 176.976C1057.22 177.915 1058.67 179.216 1059.69 180.88C1060.76 182.544 1061.29 184.464 1061.29 186.64V210H1058.41V202.64H1058.67C1058.11 204.048 1057.2 205.371 1055.92 206.608C1054.64 207.845 1053.1 208.848 1051.31 209.616C1049.52 210.384 1047.53 210.768 1045.36 210.768ZM1083.59 210.384C1080.99 210.384 1078.98 209.68 1077.58 208.272C1076.17 206.864 1075.46 204.752 1075.46 201.936V178.896H1069.06V176.336H1072.26C1073.37 176.336 1074.18 176.059 1074.7 175.504C1075.21 174.949 1075.46 174.075 1075.46 172.88V168.4H1078.34V176.336H1085.64V178.896H1078.34V201.936C1078.34 202.704 1078.45 203.536 1078.66 204.432C1078.92 205.328 1079.43 206.096 1080.2 206.736C1081.01 207.333 1082.23 207.632 1083.85 207.632C1084.19 207.632 1084.62 207.611 1085.13 207.568C1085.64 207.525 1086.05 207.483 1086.34 207.44V210C1085.92 210.128 1085.41 210.213 1084.81 210.256C1084.25 210.341 1083.85 210.384 1083.59 210.384ZM1096.19 210V176.336H1099.07V210H1096.19ZM1096.19 169.36V162.32H1099.07V169.36H1096.19ZM1119.66 210L1106.1 176.336H1109.36L1121.84 207.504H1120.62L1133.17 176.336H1136.5L1122.74 210H1119.66ZM1158.43 210.768C1155.23 210.768 1152.35 210 1149.79 208.464C1147.23 206.885 1145.21 204.773 1143.71 202.128C1142.22 199.44 1141.47 196.453 1141.47 193.168C1141.47 189.84 1142.2 186.853 1143.65 184.208C1145.1 181.52 1147.04 179.408 1149.47 177.872C1151.95 176.336 1154.72 175.568 1157.79 175.568C1159.97 175.568 1162 175.973 1163.87 176.784C1165.75 177.595 1167.37 178.725 1168.74 180.176C1170.15 181.627 1171.23 183.333 1172 185.296C1172.77 187.216 1173.15 189.307 1173.15 191.568C1173.15 191.995 1173.13 192.4 1173.09 192.784C1173.09 193.168 1173.05 193.595 1172.96 194.064H1142.95V191.504H1171.3L1170.21 192.336C1170.34 189.691 1169.87 187.323 1168.8 185.232C1167.74 183.099 1166.24 181.413 1164.32 180.176C1162.4 178.896 1160.23 178.256 1157.79 178.256C1155.28 178.256 1152.99 178.917 1150.95 180.24C1148.94 181.563 1147.34 183.355 1146.15 185.616C1144.95 187.835 1144.35 190.352 1144.35 193.168C1144.35 195.984 1144.97 198.523 1146.21 200.784C1147.45 203.045 1149.11 204.837 1151.2 206.16C1153.34 207.44 1155.75 208.08 1158.43 208.08C1160.87 208.08 1163.06 207.504 1165.03 206.352C1166.99 205.2 1168.57 203.579 1169.76 201.488L1172.19 202.768C1171.38 204.389 1170.27 205.819 1168.87 207.056C1167.46 208.251 1165.86 209.168 1164.07 209.808C1162.32 210.448 1160.44 210.768 1158.43 210.768ZM336.635 338V242.64H355.836L391.548 290H382.588L417.276 242.64H436.476V338H416.636V264.528L424.572 266.32L387.836 313.68H385.276L349.82 266.32L356.476 264.528V338H336.635ZM453.385 338V242.64H517.514V259.92H473.226V281.552H514.954V298.832H473.226V320.72H517.514V338H453.385ZM528.76 338V242.64H559.865C570.19 242.64 579.15 244.688 586.745 248.784C594.339 252.88 600.227 258.512 604.409 265.68C608.59 272.848 610.681 281.04 610.681 290.256C610.681 299.472 608.59 307.707 604.409 314.96C600.227 322.128 594.339 327.76 586.745 331.856C579.15 335.952 570.19 338 559.865 338H528.76ZM548.601 320.72H560.377C566.606 320.72 571.982 319.483 576.505 317.008C581.027 314.448 584.526 310.907 587.001 306.384C589.561 301.776 590.84 296.4 590.84 290.256C590.84 284.027 589.561 278.651 587.001 274.128C584.526 269.605 581.027 266.107 576.505 263.632C571.982 261.157 566.606 259.92 560.377 259.92H548.601V320.72ZM623.385 338V242.64H643.226V338H623.385ZM653.096 338L685.352 242.64H711.72L743.976 338H722.344L715.944 318.544H681L674.6 338H653.096ZM686.504 301.264H710.44L695.848 256.208H701.224L686.504 301.264ZM822.198 339.536C815.371 339.536 809.014 338.299 803.126 335.824C797.323 333.349 792.246 329.893 787.894 325.456C783.542 321.019 780.128 315.813 777.654 309.84C775.264 303.867 774.07 297.339 774.07 290.256C774.07 283.173 775.264 276.645 777.654 270.672C780.043 264.613 783.414 259.408 787.766 255.056C792.118 250.619 797.195 247.205 802.998 244.816C808.886 242.341 815.286 241.104 822.198 241.104C829.11 241.104 835.296 242.256 840.757 244.56C846.304 246.864 850.998 249.936 854.838 253.776C858.678 257.616 861.408 261.883 863.03 266.576L845.494 275.024C843.872 270.416 841.014 266.619 836.918 263.632C832.907 260.56 828 259.024 822.198 259.024C816.566 259.024 811.616 260.347 807.35 262.992C803.083 265.637 799.755 269.307 797.366 274C795.062 278.608 793.91 284.027 793.91 290.256C793.91 296.485 795.062 301.947 797.366 306.64C799.755 311.333 803.083 315.003 807.35 317.648C811.616 320.293 816.566 321.616 822.198 321.616C828 321.616 832.907 320.123 836.918 317.136C841.014 314.064 843.872 310.224 845.494 305.616L863.03 314.064C861.408 318.757 858.678 323.024 854.838 326.864C850.998 330.704 846.304 333.776 840.757 336.08C835.296 338.384 829.11 339.536 822.198 339.536ZM923.505 339.536C916.337 339.536 909.681 338.299 903.537 335.824C897.393 333.349 892.017 329.893 887.409 325.456C882.886 320.933 879.345 315.685 876.785 309.712C874.225 303.739 872.945 297.253 872.945 290.256C872.945 283.259 874.182 276.773 876.657 270.8C879.217 264.827 882.758 259.621 887.281 255.184C891.889 250.747 897.265 247.291 903.409 244.816C909.553 242.341 916.251 241.104 923.505 241.104C930.758 241.104 937.457 242.341 943.601 244.816C949.745 247.291 955.078 250.747 959.601 255.184C964.209 259.621 967.75 264.827 970.225 270.8C972.785 276.773 974.065 283.259 974.065 290.256C974.065 297.253 972.785 303.739 970.225 309.712C967.665 315.685 964.081 320.933 959.473 325.456C954.95 329.893 949.617 333.349 943.473 335.824C937.329 338.299 930.673 339.536 923.505 339.536ZM923.505 321.616C927.857 321.616 931.867 320.848 935.537 319.312C939.291 317.776 942.577 315.643 945.393 312.912C948.209 310.096 950.385 306.768 951.921 302.928C953.457 299.088 954.225 294.864 954.225 290.256C954.225 285.648 953.457 281.467 951.921 277.712C950.385 273.872 948.209 270.544 945.393 267.728C942.577 264.912 939.291 262.779 935.537 261.328C931.867 259.792 927.857 259.024 923.505 259.024C919.153 259.024 915.099 259.792 911.345 261.328C907.675 262.779 904.433 264.912 901.617 267.728C898.801 270.544 896.625 273.872 895.089 277.712C893.553 281.467 892.785 285.648 892.785 290.256C892.785 294.864 893.553 299.088 895.089 302.928C896.625 306.768 898.801 310.096 901.617 312.912C904.433 315.643 907.675 317.776 911.345 319.312C915.099 320.848 919.153 321.616 923.505 321.616ZM988.135 338V242.64H1003.37L1054.57 310.096L1046.38 312.016V242.64H1066.22V338H1050.86L1000.55 270.032L1007.98 268.112V338H988.135ZM1100.29 338V259.92H1076.1V242.64H1143.94V259.92H1120.13V338H1100.29ZM1153.76 338V242.64H1190.24C1196.81 242.64 1202.61 243.792 1207.65 246.096C1212.77 248.4 1216.78 251.813 1219.68 256.336C1222.58 260.859 1224.03 266.448 1224.03 273.104C1224.03 279.589 1222.54 285.136 1219.55 289.744C1216.57 294.267 1212.56 297.68 1207.52 299.984L1229.28 338H1207.01L1183.46 295.888L1196.26 303.44H1173.6V338H1153.76ZM1173.6 286.16H1190.37C1193.18 286.16 1195.62 285.605 1197.66 284.496C1199.71 283.387 1201.29 281.851 1202.4 279.888C1203.6 277.925 1204.19 275.664 1204.19 273.104C1204.19 270.459 1203.6 268.155 1202.4 266.192C1201.29 264.229 1199.71 262.693 1197.66 261.584C1195.62 260.475 1193.18 259.92 1190.37 259.92H1173.6V286.16ZM1286.88 339.536C1279.71 339.536 1273.06 338.299 1266.91 335.824C1260.77 333.349 1255.39 329.893 1250.78 325.456C1246.26 320.933 1242.72 315.685 1240.16 309.712C1237.6 303.739 1236.32 297.253 1236.32 290.256C1236.32 283.259 1237.56 276.773 1240.03 270.8C1242.59 264.827 1246.13 259.621 1250.66 255.184C1255.26 250.747 1260.64 247.291 1266.78 244.816C1272.93 242.341 1279.63 241.104 1286.88 241.104C1294.13 241.104 1300.83 242.341 1306.98 244.816C1313.12 247.291 1318.45 250.747 1322.98 255.184C1327.58 259.621 1331.12 264.827 1333.6 270.8C1336.16 276.773 1337.44 283.259 1337.44 290.256C1337.44 297.253 1336.16 303.739 1333.6 309.712C1331.04 315.685 1327.46 320.933 1322.85 325.456C1318.32 329.893 1312.99 333.349 1306.85 335.824C1300.7 338.299 1294.05 339.536 1286.88 339.536ZM1286.88 321.616C1291.23 321.616 1295.24 320.848 1298.91 319.312C1302.67 317.776 1305.95 315.643 1308.77 312.912C1311.58 310.096 1313.76 306.768 1315.3 302.928C1316.83 299.088 1317.6 294.864 1317.6 290.256C1317.6 285.648 1316.83 281.467 1315.3 277.712C1313.76 273.872 1311.58 270.544 1308.77 267.728C1305.95 264.912 1302.67 262.779 1298.91 261.328C1295.24 259.792 1291.23 259.024 1286.88 259.024C1282.53 259.024 1278.47 259.792 1274.72 261.328C1271.05 262.779 1267.81 264.912 1264.99 267.728C1262.18 270.544 1260 273.872 1258.46 277.712C1256.93 281.467 1256.16 285.648 1256.16 290.256C1256.16 294.864 1256.93 299.088 1258.46 302.928C1260 306.768 1262.18 310.096 1264.99 312.912C1267.81 315.643 1271.05 317.776 1274.72 319.312C1278.47 320.848 1282.53 321.616 1286.88 321.616ZM1351.51 338V242.64H1371.35V320.72H1411.67V338H1351.51ZM1421.51 338V242.64H1441.35V320.72H1481.67V338H1421.51ZM1491.51 338V242.64H1555.64V259.92H1511.35V281.552H1553.08V298.832H1511.35V320.72H1555.64V338H1491.51ZM1566.89 338V242.64H1603.37C1609.94 242.64 1615.74 243.792 1620.77 246.096C1625.89 248.4 1629.9 251.813 1632.81 256.336C1635.71 260.859 1637.16 266.448 1637.16 273.104C1637.16 279.589 1635.66 285.136 1632.68 289.744C1629.69 294.267 1625.68 297.68 1620.65 299.984L1642.41 338H1620.13L1596.58 295.888L1609.38 303.44H1586.73V338H1566.89ZM1586.73 286.16H1603.49C1606.31 286.16 1608.74 285.605 1610.79 284.496C1612.84 283.387 1614.42 281.851 1615.53 279.888C1616.72 277.925 1617.32 275.664 1617.32 273.104C1617.32 270.459 1616.72 268.155 1615.53 266.192C1614.42 264.229 1612.84 262.693 1610.79 261.584C1608.74 260.475 1606.31 259.92 1603.49 259.92H1586.73V286.16Z" fill="white"/>
</g>
<defs>
<filter id="filter0_d_236_5" x="332.635" y="160.32" width="1313.77" height="185.216" filterUnits="userSpaceOnUse" color-interpolation-filters="sRGB">
<feFlood flood-opacity="0" result="BackgroundImageFix"/>
<feColorMatrix in="SourceAlpha" type="matrix" values="0 0 0 0 0 0 0 0 0 0 0 0 0 0 0 0 0 0 127 0" result="hardAlpha"/>
<feOffset dy="2"/>
<feGaussianBlur stdDeviation="2"/>
<feComposite in2="hardAlpha" operator="out"/>
<feColorMatrix type="matrix" values="0 0 0 0 0 0 0 0 0 0 0 0 0 0 0 0 0 0 0.25 0"/>
<feBlend mode="normal" in2="BackgroundImageFix" result="effect1_dropShadow_236_5"/>
<feBlend mode="normal" in="SourceGraphic" in2="effect1_dropShadow_236_5" result="shape"/>
</filter>
<clipPath id="clip0_236_5">
<rect width="1973" height="438.557" fill="white" transform="translate(0 61)"/>
</clipPath>
</defs>
</svg>
